<svg width="167" height="16" viewBox="0 0 167 16" fill="none" xmlns="http://www.w3.org/2000/svg">
<path d="M41.528 13.574V14.51H35.84V13.07C35.84 12.686 35.904 12.354 36.032 12.074C36.16 11.786 36.34 11.542 36.572 11.342C36.812 11.134 37.1 10.962 37.436 10.826C37.772 10.69 38.152 10.574 38.576 10.478C39.288 10.318 39.8 10.09 40.112 9.794C40.432 9.498 40.592 9.134 40.592 8.702V8.63C40.592 8.414 40.556 8.202 40.484 7.994C40.412 7.786 40.3 7.598 40.148 7.43C39.996 7.262 39.8 7.13 39.56 7.034C39.328 6.93 39.048 6.878 38.72 6.878C38.104 6.878 37.624 7.066 37.28 7.442C36.944 7.818 36.776 8.318 36.776 8.942V9.47H35.768V8.87C35.768 8.486 35.832 8.118 35.96 7.766C36.088 7.414 36.276 7.102 36.524 6.83C36.772 6.558 37.08 6.342 37.448 6.182C37.816 6.022 38.24 5.942 38.72 5.942C39.208 5.942 39.632 6.018 39.992 6.17C40.352 6.314 40.652 6.51 40.892 6.758C41.132 6.998 41.308 7.274 41.42 7.586C41.54 7.89 41.6 8.202 41.6 8.522V8.738C41.6 9.378 41.4 9.926 41 10.382C40.6 10.83 39.96 11.15 39.08 11.342C38.312 11.51 37.748 11.734 37.388 12.014C37.028 12.286 36.848 12.686 36.848 13.214V13.574H41.528ZM45.1917 10.334V8.942L47.9277 7.19V7.046H43.1757V6.11H48.7917V7.646L46.0557 9.398V9.542H46.5357C46.8557 9.542 47.1637 9.594 47.4597 9.698C47.7557 9.802 48.0157 9.954 48.2397 10.154C48.4717 10.354 48.6557 10.602 48.7917 10.898C48.9357 11.186 49.0077 11.522 49.0077 11.906V12.122C49.0077 12.482 48.9357 12.818 48.7917 13.13C48.6477 13.442 48.4477 13.714 48.1917 13.946C47.9357 14.17 47.6317 14.35 47.2797 14.486C46.9357 14.614 46.5597 14.678 46.1517 14.678C45.6797 14.678 45.2557 14.606 44.8797 14.462C44.5037 14.318 44.1837 14.122 43.9197 13.874C43.6557 13.618 43.4517 13.322 43.3077 12.986C43.1717 12.642 43.1037 12.278 43.1037 11.894V11.246H44.1117V11.822C44.1117 12.126 44.1597 12.398 44.2557 12.638C44.3597 12.87 44.4997 13.07 44.6757 13.238C44.8597 13.398 45.0757 13.522 45.3237 13.61C45.5717 13.698 45.8397 13.742 46.1277 13.742C46.3917 13.742 46.6357 13.698 46.8597 13.61C47.0917 13.522 47.2917 13.402 47.4597 13.25C47.6277 13.09 47.7597 12.906 47.8557 12.698C47.9517 12.482 47.9997 12.254 47.9997 12.014V11.942C47.9997 11.438 47.8397 11.046 47.5197 10.766C47.1997 10.478 46.7997 10.334 46.3197 10.334H45.1917ZM50.4153 9.374C50.4153 8.286 50.6753 7.442 51.1953 6.842C51.7153 6.242 52.4393 5.942 53.3673 5.942C54.2953 5.942 55.0193 6.242 55.5393 6.842C56.0593 7.442 56.3193 8.286 56.3193 9.374V11.246C56.3193 12.366 56.0593 13.218 55.5393 13.802C55.0193 14.386 54.2953 14.678 53.3673 14.678C52.4393 14.678 51.7153 14.386 51.1953 13.802C50.6753 13.218 50.4153 12.366 50.4153 11.246V9.374ZM53.3673 13.766C54.0153 13.766 54.4993 13.542 54.8193 13.094C55.1473 12.638 55.3113 11.998 55.3113 11.174V9.446C55.3113 9.062 55.2713 8.714 55.1913 8.402C55.1113 8.082 54.9873 7.81 54.8193 7.586C54.6593 7.354 54.4553 7.174 54.2073 7.046C53.9673 6.918 53.6873 6.854 53.3673 6.854C53.0393 6.854 52.7553 6.918 52.5153 7.046C52.2753 7.174 52.0713 7.354 51.9033 7.586C51.7433 7.81 51.6233 8.082 51.5433 8.402C51.4633 8.714 51.4233 9.062 51.4233 9.446V11.174C51.4233 11.998 51.5833 12.638 51.9033 13.094C52.2313 13.542 52.7193 13.766 53.3673 13.766ZM52.5993 10.31C52.5993 10.102 52.6753 9.922 52.8273 9.77C52.9793 9.618 53.1593 9.542 53.3673 9.542C53.5753 9.542 53.7553 9.618 53.9073 9.77C54.0593 9.922 54.1353 10.102 54.1353 10.31C54.1353 10.518 54.0593 10.698 53.9073 10.85C53.7553 11.002 53.5753 11.078 53.3673 11.078C53.1593 11.078 52.9793 11.002 52.8273 10.85C52.6753 10.698 52.5993 10.518 52.5993 10.31ZM57.763 9.374C57.763 8.286 58.023 7.442 58.543 6.842C59.063 6.242 59.787 5.942 60.715 5.942C61.643 5.942 62.367 6.242 62.887 6.842C63.407 7.442 63.667 8.286 63.667 9.374V11.246C63.667 12.366 63.407 13.218 62.887 13.802C62.367 14.386 61.643 14.678 60.715 14.678C59.787 14.678 59.063 14.386 58.543 13.802C58.023 13.218 57.763 12.366 57.763 11.246V9.374ZM60.715 13.766C61.363 13.766 61.847 13.542 62.167 13.094C62.495 12.638 62.659 11.998 62.659 11.174V9.446C62.659 9.062 62.619 8.714 62.539 8.402C62.459 8.082 62.335 7.81 62.167 7.586C62.007 7.354 61.803 7.174 61.555 7.046C61.315 6.918 61.035 6.854 60.715 6.854C60.387 6.854 60.103 6.918 59.863 7.046C59.623 7.174 59.419 7.354 59.251 7.586C59.091 7.81 58.971 8.082 58.891 8.402C58.811 8.714 58.771 9.062 58.771 9.446V11.174C58.771 11.998 58.931 12.638 59.251 13.094C59.579 13.542 60.067 13.766 60.715 13.766ZM59.947 10.31C59.947 10.102 60.023 9.922 60.175 9.77C60.327 9.618 60.507 9.542 60.715 9.542C60.923 9.542 61.103 9.618 61.255 9.77C61.407 9.922 61.483 10.102 61.483 10.31C61.483 10.518 61.407 10.698 61.255 10.85C61.103 11.002 60.923 11.078 60.715 11.078C60.507 11.078 60.327 11.002 60.175 10.85C60.023 10.698 59.947 10.518 59.947 10.31ZM69.8266 8.558C69.8266 8.038 69.6666 7.622 69.3466 7.31C69.0266 6.99 68.5826 6.83 68.0146 6.83C67.7426 6.83 67.4906 6.878 67.2586 6.974C67.0346 7.07 66.8386 7.21 66.6706 7.394C66.5106 7.57 66.3826 7.782 66.2866 8.03C66.1986 8.278 66.1546 8.55 66.1546 8.846V10.094H66.2986C66.4906 9.742 66.7626 9.466 67.1146 9.266C67.4746 9.066 67.8746 8.966 68.3146 8.966C68.6986 8.966 69.0546 9.03 69.3826 9.158C69.7106 9.278 69.9906 9.458 70.2226 9.698C70.4626 9.938 70.6466 10.23 70.7746 10.574C70.9106 10.91 70.9786 11.294 70.9786 11.726V11.87C70.9786 12.286 70.9026 12.666 70.7506 13.01C70.6066 13.354 70.4026 13.65 70.1386 13.898C69.8826 14.146 69.5746 14.338 69.2146 14.474C68.8626 14.61 68.4786 14.678 68.0626 14.678C67.6466 14.678 67.2586 14.61 66.8986 14.474C66.5466 14.338 66.2386 14.15 65.9746 13.91C65.7186 13.662 65.5146 13.37 65.3626 13.034C65.2186 12.69 65.1466 12.314 65.1466 11.906V8.846C65.1466 8.406 65.2226 8.006 65.3746 7.646C65.5266 7.286 65.7346 6.982 65.9986 6.734C66.2626 6.478 66.5666 6.282 66.9106 6.146C67.2626 6.01 67.6386 5.942 68.0386 5.942C68.4386 5.942 68.8106 6.002 69.1546 6.122C69.4986 6.242 69.7946 6.418 70.0426 6.65C70.2906 6.874 70.4826 7.15 70.6186 7.478C70.7626 7.798 70.8346 8.158 70.8346 8.558H69.8266ZM68.0626 13.79C68.3506 13.79 68.6106 13.746 68.8426 13.658C69.0826 13.562 69.2866 13.43 69.4546 13.262C69.6226 13.094 69.7506 12.894 69.8386 12.662C69.9266 12.43 69.9706 12.174 69.9706 11.894V11.75C69.9706 11.47 69.9226 11.214 69.8266 10.982C69.7306 10.75 69.5986 10.55 69.4306 10.382C69.2626 10.214 69.0586 10.086 68.8186 9.998C68.5866 9.902 68.3346 9.854 68.0626 9.854C67.7906 9.854 67.5386 9.902 67.3066 9.998C67.0746 10.094 66.8706 10.226 66.6946 10.394C66.5266 10.562 66.3946 10.758 66.2986 10.982C66.2026 11.206 66.1546 11.446 66.1546 11.702V11.93C66.1546 12.194 66.1986 12.442 66.2866 12.674C66.3746 12.898 66.5026 13.094 66.6706 13.262C66.8386 13.43 67.0386 13.562 67.2706 13.658C67.5106 13.746 67.7746 13.79 68.0626 13.79ZM74.5823 10.334V8.942L77.3183 7.19V7.046H72.5663V6.11H78.1823V7.646L75.4463 9.398V9.542H75.9263C76.2463 9.542 76.5543 9.594 76.8503 9.698C77.1463 9.802 77.4063 9.954 77.6303 10.154C77.8623 10.354 78.0463 10.602 78.1823 10.898C78.3263 11.186 78.3983 11.522 78.3983 11.906V12.122C78.3983 12.482 78.3263 12.818 78.1823 13.13C78.0383 13.442 77.8383 13.714 77.5823 13.946C77.3263 14.17 77.0223 14.35 76.6703 14.486C76.3263 14.614 75.9503 14.678 75.5423 14.678C75.0703 14.678 74.6463 14.606 74.2703 14.462C73.8943 14.318 73.5743 14.122 73.3103 13.874C73.0463 13.618 72.8423 13.322 72.6983 12.986C72.5623 12.642 72.4943 12.278 72.4943 11.894V11.246H73.5023V11.822C73.5023 12.126 73.5503 12.398 73.6463 12.638C73.7503 12.87 73.8903 13.07 74.0663 13.238C74.2503 13.398 74.4663 13.522 74.7143 13.61C74.9623 13.698 75.2303 13.742 75.5183 13.742C75.7823 13.742 76.0263 13.698 76.2503 13.61C76.4823 13.522 76.6823 13.402 76.8503 13.25C77.0183 13.09 77.1503 12.906 77.2463 12.698C77.3423 12.482 77.3903 12.254 77.3903 12.014V11.942C77.3903 11.438 77.2303 11.046 76.9103 10.766C76.5903 10.478 76.1903 10.334 75.7103 10.334H74.5823ZM85.6139 13.574V14.51H79.9259V13.07C79.9259 12.686 79.9899 12.354 80.1179 12.074C80.2459 11.786 80.4259 11.542 80.6579 11.342C80.8979 11.134 81.1859 10.962 81.5219 10.826C81.8579 10.69 82.2379 10.574 82.6619 10.478C83.3739 10.318 83.8859 10.09 84.1979 9.794C84.5179 9.498 84.6779 9.134 84.6779 8.702V8.63C84.6779 8.414 84.6419 8.202 84.5699 7.994C84.4979 7.786 84.3859 7.598 84.2339 7.43C84.0819 7.262 83.8859 7.13 83.6459 7.034C83.4139 6.93 83.1339 6.878 82.8059 6.878C82.1899 6.878 81.7099 7.066 81.3659 7.442C81.0299 7.818 80.8619 8.318 80.8619 8.942V9.47H79.8539V8.87C79.8539 8.486 79.9179 8.118 80.0459 7.766C80.1739 7.414 80.3619 7.102 80.6099 6.83C80.8579 6.558 81.1659 6.342 81.5339 6.182C81.9019 6.022 82.3259 5.942 82.8059 5.942C83.2939 5.942 83.7179 6.018 84.0779 6.17C84.4379 6.314 84.7379 6.51 84.9779 6.758C85.2179 6.998 85.3939 7.274 85.5059 7.586C85.6259 7.89 85.6859 8.202 85.6859 8.522V8.738C85.6859 9.378 85.4859 9.926 85.0859 10.382C84.6859 10.83 84.0459 11.15 83.1659 11.342C82.3979 11.51 81.8339 11.734 81.4739 12.014C81.1139 12.286 80.9339 12.686 80.9339 13.214V13.574H85.6139ZM87.2976 6.11H92.9136V7.574L89.3736 12.926C89.2056 13.182 89.0776 13.402 88.9896 13.586C88.9016 13.77 88.8576 13.958 88.8576 14.15V14.51H87.8736V14.078C87.8736 13.934 87.8856 13.798 87.9096 13.67C87.9416 13.542 87.9856 13.414 88.0416 13.286C88.1056 13.15 88.1816 13.01 88.2696 12.866C88.3656 12.714 88.4776 12.542 88.6056 12.35L92.0496 7.19V7.046H87.2976V6.11ZM94.7173 8.39V7.526H98.1973C98.9333 7.526 99.5093 7.718 99.9253 8.102C100.341 8.486 100.549 9.078 100.549 9.878V13.574C100.549 13.846 100.461 14.07 100.285 14.246C100.117 14.422 99.8973 14.51 99.6253 14.51H98.6653C98.3693 14.51 98.1533 14.434 98.0173 14.282C97.8813 14.122 97.8133 13.934 97.8133 13.718H97.6693C97.5733 14.022 97.4093 14.258 97.1773 14.426C96.9533 14.594 96.6533 14.678 96.2773 14.678C95.9813 14.678 95.7093 14.618 95.4613 14.498C95.2133 14.378 94.9973 14.206 94.8133 13.982C94.6373 13.758 94.4973 13.486 94.3933 13.166C94.2893 12.838 94.2373 12.474 94.2373 12.074V11.858C94.2373 11.458 94.2893 11.098 94.3933 10.778C94.4973 10.458 94.6373 10.186 94.8133 9.962C94.9973 9.73 95.2133 9.554 95.4613 9.434C95.7093 9.314 95.9733 9.254 96.2533 9.254C96.6213 9.254 96.9013 9.326 97.0933 9.47C97.2933 9.606 97.4613 9.806 97.5973 10.07H97.7413V9.422H98.6773V13.286C98.6773 13.526 98.7853 13.646 99.0013 13.646H99.2893C99.5053 13.646 99.6133 13.526 99.6133 13.286V9.974C99.6133 9.454 99.4893 9.062 99.2413 8.798C99.0013 8.526 98.6213 8.39 98.1013 8.39H94.7173ZM96.4573 13.79C96.6973 13.79 96.8973 13.746 97.0573 13.658C97.2253 13.57 97.3573 13.45 97.4533 13.298C97.5573 13.138 97.6293 12.954 97.6693 12.746C97.7173 12.538 97.7413 12.314 97.7413 12.074V11.858C97.7413 11.634 97.7173 11.418 97.6693 11.21C97.6293 11.002 97.5573 10.818 97.4533 10.658C97.3573 10.498 97.2253 10.374 97.0573 10.286C96.8973 10.19 96.6973 10.142 96.4573 10.142C96.2573 10.142 96.0773 10.186 95.9173 10.274C95.7573 10.362 95.6213 10.486 95.5093 10.646C95.4053 10.798 95.3213 10.978 95.2573 11.186C95.2013 11.394 95.1733 11.618 95.1733 11.858V12.074C95.1733 12.578 95.2853 12.99 95.5093 13.31C95.7333 13.63 96.0493 13.79 96.4573 13.79ZM106.421 8.558H107.357V14.51H106.421V13.43H106.277C106.085 13.814 105.833 14.118 105.521 14.342C105.209 14.566 104.813 14.678 104.333 14.678C104.005 14.678 103.701 14.622 103.421 14.51C103.149 14.406 102.913 14.246 102.713 14.03C102.521 13.814 102.369 13.546 102.257 13.226C102.153 12.906 102.101 12.534 102.101 12.11V8.558H103.037V11.99C103.037 12.614 103.165 13.07 103.421 13.358C103.677 13.646 104.069 13.79 104.597 13.79C105.165 13.79 105.609 13.598 105.929 13.214C106.257 12.822 106.421 12.302 106.421 11.654V8.558ZM110.457 14.51H109.521V6.11H110.457V9.638H110.601C110.785 9.254 111.041 8.95 111.369 8.726C111.705 8.502 112.113 8.39 112.593 8.39C113.241 8.39 113.765 8.606 114.165 9.038C114.573 9.462 114.777 10.102 114.777 10.958V14.51H113.841V11.15C113.841 10.526 113.701 10.058 113.421 9.746C113.141 9.434 112.761 9.278 112.281 9.278C111.713 9.278 111.265 9.474 110.937 9.866C110.617 10.25 110.457 10.766 110.457 11.414V14.51ZM118.716 6.782C118.716 6.55 118.796 6.354 118.956 6.194C119.124 6.026 119.324 5.942 119.556 5.942C119.788 5.942 119.984 6.026 120.144 6.194C120.312 6.354 120.396 6.55 120.396 6.782C120.396 7.014 120.312 7.214 120.144 7.382C119.984 7.542 119.788 7.622 119.556 7.622C119.324 7.622 119.124 7.542 118.956 7.382C118.796 7.214 118.716 7.014 118.716 6.782ZM117.012 13.646H119.1V9.422H117.228V8.558H120.036V13.646H121.98V14.51H117.012V13.646ZM126.004 13.838C126.004 13.606 126.084 13.41 126.244 13.25C126.412 13.082 126.612 12.998 126.844 12.998C127.076 12.998 127.272 13.082 127.432 13.25C127.6 13.41 127.684 13.606 127.684 13.838C127.684 14.07 127.6 14.27 127.432 14.438C127.272 14.598 127.076 14.678 126.844 14.678C126.612 14.678 126.412 14.598 126.244 14.438C126.084 14.27 126.004 14.07 126.004 13.838ZM135.884 13.502H135.74C135.548 13.902 135.28 14.198 134.936 14.39C134.6 14.582 134.244 14.678 133.868 14.678C133.476 14.678 133.112 14.614 132.776 14.486C132.44 14.35 132.144 14.154 131.888 13.898C131.64 13.634 131.444 13.314 131.3 12.938C131.156 12.562 131.084 12.126 131.084 11.63V11.438C131.084 10.95 131.156 10.518 131.3 10.142C131.444 9.766 131.64 9.45 131.888 9.194C132.144 8.93 132.44 8.73 132.776 8.594C133.112 8.458 133.468 8.39 133.844 8.39C134.252 8.39 134.62 8.482 134.948 8.666C135.284 8.842 135.548 9.118 135.74 9.494H135.884V8.558H136.82V13.286C136.82 13.526 136.928 13.646 137.144 13.646H137.444V14.51H136.808C136.536 14.51 136.312 14.422 136.136 14.246C135.968 14.07 135.884 13.846 135.884 13.574V13.502ZM133.964 13.79C134.244 13.79 134.5 13.738 134.732 13.634C134.972 13.53 135.176 13.382 135.344 13.19C135.512 12.998 135.644 12.77 135.74 12.506C135.836 12.234 135.884 11.934 135.884 11.606V11.462C135.884 11.142 135.836 10.85 135.74 10.586C135.644 10.314 135.508 10.082 135.332 9.89C135.164 9.698 134.96 9.55 134.72 9.446C134.488 9.334 134.236 9.278 133.964 9.278C133.684 9.278 133.428 9.33 133.196 9.434C132.964 9.538 132.76 9.686 132.584 9.878C132.416 10.062 132.284 10.29 132.188 10.562C132.092 10.826 132.044 11.118 132.044 11.438V11.63C132.044 12.31 132.22 12.842 132.572 13.226C132.932 13.602 133.396 13.79 133.964 13.79ZM144.479 12.398C144.415 12.726 144.303 13.03 144.143 13.31C143.991 13.59 143.795 13.834 143.555 14.042C143.315 14.242 143.035 14.398 142.715 14.51C142.395 14.622 142.039 14.678 141.647 14.678C141.231 14.678 140.835 14.61 140.459 14.474C140.091 14.338 139.767 14.142 139.487 13.886C139.207 13.622 138.983 13.302 138.815 12.926C138.655 12.55 138.575 12.118 138.575 11.63V11.486C138.575 11.006 138.655 10.574 138.815 10.19C138.983 9.806 139.207 9.482 139.487 9.218C139.767 8.954 140.091 8.75 140.459 8.606C140.835 8.462 141.231 8.39 141.647 8.39C142.023 8.39 142.371 8.446 142.691 8.558C143.011 8.67 143.291 8.83 143.531 9.038C143.779 9.238 143.979 9.478 144.131 9.758C144.291 10.038 144.399 10.342 144.455 10.67L143.519 10.886C143.495 10.678 143.435 10.478 143.339 10.286C143.251 10.086 143.127 9.914 142.967 9.77C142.815 9.618 142.627 9.498 142.403 9.41C142.179 9.322 141.919 9.278 141.623 9.278C141.335 9.278 141.063 9.334 140.807 9.446C140.559 9.55 140.339 9.702 140.147 9.902C139.955 10.094 139.803 10.326 139.691 10.598C139.587 10.87 139.535 11.166 139.535 11.486V11.63C139.535 11.966 139.587 12.27 139.691 12.542C139.803 12.806 139.955 13.03 140.147 13.214C140.339 13.398 140.563 13.542 140.819 13.646C141.075 13.742 141.351 13.79 141.647 13.79C141.943 13.79 142.199 13.746 142.415 13.658C142.639 13.562 142.827 13.442 142.979 13.298C143.139 13.146 143.263 12.974 143.351 12.782C143.447 12.59 143.511 12.39 143.543 12.182L144.479 12.398ZM148.047 13.838C148.047 13.606 148.127 13.41 148.287 13.25C148.455 13.082 148.655 12.998 148.887 12.998C149.119 12.998 149.315 13.082 149.475 13.25C149.643 13.41 149.727 13.606 149.727 13.838C149.727 14.07 149.643 14.27 149.475 14.438C149.315 14.598 149.119 14.678 148.887 14.678C148.655 14.678 148.455 14.598 148.287 14.438C148.127 14.27 148.047 14.07 148.047 13.838ZM157.855 8.558H158.791V14.51H157.855V13.43H157.711C157.519 13.814 157.267 14.118 156.955 14.342C156.643 14.566 156.247 14.678 155.767 14.678C155.439 14.678 155.135 14.622 154.855 14.51C154.583 14.406 154.347 14.246 154.146 14.03C153.955 13.814 153.803 13.546 153.691 13.226C153.587 12.906 153.535 12.534 153.535 12.11V8.558H154.471V11.99C154.471 12.614 154.599 13.07 154.855 13.358C155.111 13.646 155.503 13.79 156.031 13.79C156.599 13.79 157.043 13.598 157.363 13.214C157.691 12.822 157.855 12.302 157.855 11.654V8.558ZM162.49 11.03H162.694L164.962 8.558H166.114V8.63L163.642 11.354V11.57L166.402 14.438V14.51H165.25L162.718 11.894H162.49V14.51H161.554V6.11H162.49V11.03Z" fill="#A19A9A"/>
<path d="M22.004 4.838L22.844 5.102L19.352 15.782L18.5 15.518L22.004 4.838ZM29.3517 4.838L30.1917 5.102L26.6997 15.782L25.8477 15.518L29.3517 4.838Z" fill="#A19A9A"/>
<path d="M1 7.33333V6H12V7.33333M1 7.33333V14H12V7.33333M1 7.33333L6.33333 11L12 7.33333" stroke="#A19A9A" stroke-width="1.1"/>
</svg>
